<?xml version="1.0" encoding="UTF-8"?>
<svg version="1.1" xmlns="http://www.w3.org/2000/svg" width="200" height="200">
<path d="M0 0 C66 0 132 0 200 0 C200 66 200 132 200 200 C134 200 68 200 0 200 C0 134 0 68 0 0 Z " fill="#209CED" transform="translate(0,0)"/>
<path d="M0 0 C6.88289683 5.6339841 12.58952603 13.6220123 14.1328125 22.51953125 C14.31619663 25.81433271 13.9497944 27.97950933 12.25 30.8125 C9.24511516 32.61543091 7.19327882 32.78994877 3.75 32.84375 C0.81317172 32.06365499 -0.34577347 30.65376213 -2.25 28.3125 C-3.64840775 25.32055784 -4.76062334 22.28378828 -5.90625 19.1875 C-7.94677203 14.82173193 -10.71333518 12.0115931 -15.25 10.3125 C-21.18753744 9.55806042 -26.19210927 9.90136439 -31.25 13.3125 C-40.23190781 20.54184043 -42.7826699 31.65945493 -44.01855469 42.61865234 C-45.70871963 62.29088864 -46.79229468 89.23821617 -33.75 105.75 C-30.59579551 108.9830596 -28.74393676 110.16387838 -24.2265625 110.61328125 C-15.7266429 110.84759481 -15.7266429 110.84759481 -8.25 107.3125 C-4.03131246 101.95362664 -3.11825953 98.13363215 -3.15234375 91.453125 C-3.15556641 90.33808594 -3.15878906 89.22304687 -3.16210938 88.07421875 C-3.17048828 86.91535156 -3.17886719 85.75648437 -3.1875 84.5625 C-3.19201172 83.38816406 -3.19652344 82.21382813 -3.20117188 81.00390625 C-3.21294906 78.10671928 -3.22939674 75.20963546 -3.25 72.3125 C-6.68354855 70.59572573 -10.85723077 71.02539898 -14.6640625 70.97070312 C-18.05653302 70.82712416 -19.96104294 70.53175656 -22.6953125 68.45703125 C-24.25 66.3125 -24.25 66.3125 -24.75 63.3125 C-24.12918808 59.58762848 -23.18603974 58.62790847 -20.25 56.3125 C-17.48852539 55.81079102 -17.48852539 55.81079102 -14.34765625 55.81640625 C-13.21005859 55.81576172 -12.07246094 55.81511719 -10.90039062 55.81445312 C-9.71638672 55.83443359 -8.53238281 55.85441406 -7.3125 55.875 C-5.54229492 55.86436523 -5.54229492 55.86436523 -3.73632812 55.85351562 C6.37030042 55.92787113 6.37030042 55.92787113 10.75 59.3125 C15.14910206 64.81784419 14.2348958 71.38795799 14.19604492 78.07470703 C14.18762925 80.27865019 14.21615604 82.47991263 14.24804688 84.68359375 C14.3043211 95.96713271 13.10571531 107.58828268 5.58203125 116.59765625 C-3.28638075 124.89879243 -13.47736591 126.9388239 -25.30859375 126.61328125 C-34.3028222 125.92690306 -40.44974179 122.24969653 -46.921875 116.0625 C-60.43792468 100.09723326 -61.4019923 77.97635749 -61.5 58.0625 C-61.50926514 56.89082275 -61.51853027 55.71914551 -61.52807617 54.51196289 C-61.46376569 36.6147328 -57.77100505 17.82321105 -45.33984375 4.22265625 C-33.16711032 -7.22406922 -14.01475492 -9.75980086 0 0 Z " fill="#F9FCFE" transform="translate(80.25,39.6875)"/>
<path d="M0 0 C0.67676285 -0.00525696 1.3535257 -0.01051392 2.05079651 -0.01593018 C4.28808674 -0.02913448 6.5246654 -0.02039019 8.76196289 -0.01025391 C10.31751136 -0.01227477 11.8730589 -0.01518631 13.42860413 -0.01895142 C16.68947363 -0.02337553 19.95009664 -0.01694199 23.2109375 -0.00292969 C27.38863508 0.01414828 31.56575388 0.00433075 35.74343014 -0.01364708 C38.95622608 -0.02449484 42.16888516 -0.02103383 45.38168526 -0.0132637 C46.9218509 -0.01126369 48.46202901 -0.01371401 50.0021801 -0.02070236 C52.15673533 -0.02833185 54.31035788 -0.01669239 56.46484375 0 C58.30326088 0.00358017 58.30326088 0.00358017 60.17881775 0.00723267 C63.53046387 0.41669042 64.92685733 1.02849697 67.29711914 3.38818359 C67.99040053 6.09580225 67.77813162 8.64526718 67.29711914 11.38818359 C65.48548647 14.06249849 64.41950837 14.34738718 61.29711914 15.38818359 C59.45101382 15.47057528 57.6020675 15.49561718 55.75415039 15.48583984 C54.68100586 15.48261719 53.60786133 15.47939453 52.50219727 15.47607422 C51.38264648 15.46769531 50.2630957 15.45931641 49.10961914 15.45068359 C47.9784668 15.44617187 46.84731445 15.44166016 45.68188477 15.43701172 C42.88690987 15.42521858 40.09204094 15.40876009 37.29711914 15.38818359 C37.29988452 15.94017772 37.3026499 16.49217184 37.30549908 17.06089306 C37.37178124 30.49838776 37.42121899 43.93585378 37.45255566 57.37347698 C37.46821887 63.87184931 37.48946944 70.37010373 37.5234375 76.8684082 C37.55600707 83.13833082 37.57396722 89.40813996 37.58175087 95.67814064 C37.58729866 98.07156982 37.59813196 100.46499271 37.61430931 102.85837364 C37.63605118 106.20788424 37.63908736 109.55692446 37.63769531 112.90649414 C37.64848114 113.89839752 37.65926697 114.8903009 37.67037964 115.91226196 C37.64812335 120.8535661 37.62587088 124.42909706 34.29711914 128.38818359 C31.11181371 129.98083631 27.75609312 129.91270014 24.29711914 129.38818359 C21.58344602 126.84958616 20.40013329 124.09621612 20.17407131 120.34798145 C20.175454 119.16854733 20.175454 119.16854733 20.17686462 117.96528625 C20.17548996 117.06084778 20.1741153 116.1564093 20.17269897 115.2245636 C20.17629425 114.2348204 20.17988953 113.24507721 20.18359375 112.2253418 C20.18344772 111.18127167 20.1833017 110.13720154 20.18315125 109.06149292 C20.18384896 105.60396256 20.19163483 102.14648581 20.19946289 98.68896484 C20.20132757 96.29428639 20.20275124 93.89960756 20.20375061 91.50492859 C20.20757186 85.19695994 20.21739883 78.88901425 20.22845459 72.58105469 C20.23867712 66.14632477 20.24325004 59.71159116 20.24829102 53.27685547 C20.25902142 40.64728837 20.2759014 28.0177372 20.29711914 15.38818359 C19.56074219 15.39865723 18.82436523 15.40913086 18.06567383 15.41992188 C14.72619038 15.46152061 11.38676149 15.48752224 8.04711914 15.51318359 C6.30881836 15.53832031 6.30881836 15.53832031 4.53540039 15.56396484 C3.42036133 15.57041016 2.30532227 15.57685547 1.15649414 15.58349609 C0.13007812 15.59396973 -0.89633789 15.60444336 -1.95385742 15.61523438 C-4.75475176 15.38389941 -6.36695056 14.92059153 -8.70288086 13.38818359 C-10.26063022 10.27268488 -10.26768708 6.78374479 -9.70288086 3.38818359 C-7.12798831 -0.34948196 -4.2980566 0.00837556 0 0 Z " fill="#F7FBFE" transform="translate(113.702880859375,36.61181640625)"/>
<path d="M0 0 C3 4 3 4 4 7 C6.67642489 9.18490007 6.67642489 9.18490007 9 9 C9 9.66 9 10.32 9 11 C10.32 11.66 11.64 12.32 13 13 C8.71 13 4.42 13 0 13 C0 8.71 0 4.42 0 0 Z " fill="#001928" transform="translate(0,187)"/>
<path d="M0 0 C4.29 0 8.58 0 13 0 C7.28571429 4.57142857 7.28571429 4.57142857 3 6 C1.77030122 9.51190809 1.77030122 9.51190809 1 13 C0.67 13 0.34 13 0 13 C0 8.71 0 4.42 0 0 Z " fill="#001526" transform="translate(0,0)"/>
<path d="M0 0 C0 4.29 0 8.58 0 13 C-2 10 -2 10 -2.875 7.4375 C-4.21467338 4.53487435 -5.09716749 4.14354008 -8 3 C-8.99 2.34 -9.98 1.68 -11 1 C-7.57067929 -0.71466036 -3.78283935 -0.05404056 0 0 Z " fill="#00090F" transform="translate(200,0)"/>
<path d="M0 0 C0.99 0 1.98 0 3 0 C3 2.97 3 5.94 3 9 C0.03 9 -2.94 9 -6 9 C-4.4198632 6.84526801 -2.89353366 4.89353366 -1 3 C-0.67 2.01 -0.34 1.02 0 0 Z " fill="#00060B" transform="translate(197,191)"/>
</svg>
