<svg xmlns="http://www.w3.org/2000/svg" width="200" height="200"><path fill="#209CED" d="M0 0h200v200H0V0Z"/><path fill="#F9FCFE" d="M80.25 39.688c6.883 5.633 12.59 13.622 14.133 22.519.183 3.295-.183 5.46-1.883 8.293-3.005 1.803-5.057 1.977-8.5 2.031-2.937-.78-4.096-2.19-6-4.531-1.398-2.992-2.51-6.029-3.656-9.125C72.304 54.509 69.537 51.699 65 50c-5.938-.754-10.942-.411-16 3-8.982 7.23-11.533 18.347-12.769 29.306-1.69 19.672-2.773 46.62 10.269 63.132 3.154 3.233 5.006 4.413 9.523 4.863 8.5.234 8.5.234 15.977-3.301 4.219-5.359 5.132-9.179 5.098-15.86l-.01-3.378-.025-3.512-.014-3.559c-.012-2.897-.028-5.794-.049-8.691-3.434-1.717-7.607-1.287-11.414-1.342-3.393-.143-5.297-.439-8.031-2.513C56 106 56 106 55.5 103c.62-3.725 1.564-4.685 4.5-7 2.761-.502 2.761-.502 5.902-.496l3.448-.002 3.588.06 3.576-.021C86.62 95.615 86.62 95.615 91 99c4.4 5.505 3.485 12.075 3.446 18.762-.008 2.204.02 4.405.052 6.61.056 11.283-1.142 22.904-8.666 31.913-8.868 8.301-19.06 10.341-30.89 10.016-8.995-.687-15.142-4.364-21.614-10.551-13.516-15.965-14.48-38.086-14.578-58l-.028-3.55c.064-17.898 3.757-36.69 16.188-50.29 12.173-11.447 31.325-13.982 45.34-4.222Z"/><path fill="#F7FBFE" d="m113.703 36.612 2.05-.016a643.23 643.23 0 0 1 6.712.006 1730.17 1730.17 0 0 1 14.449.007c4.178.017 8.355.007 12.532-.01 3.213-.012 6.426-.008 9.639 0 1.54.002 3.08 0 4.62-.008 2.155-.008 4.308.004 6.463.02l3.714.008c3.351.41 4.748 1.021 7.118 3.381.693 2.708.481 5.257 0 8-1.812 2.674-2.878 2.96-6 4-1.846.082-3.695.107-5.543.098l-3.252-.01-3.393-.026-3.427-.013c-2.795-.012-5.59-.028-8.385-.049l.008 1.673c.067 13.437.116 26.875.147 40.312.016 6.499.037 12.997.071 19.495.033 6.27.05 12.54.059 18.81.005 2.393.016 4.787.032 7.18.022 3.35.025 6.699.024 10.048l.032 3.006c-.022 4.941-.044 8.517-3.373 12.476-3.185 1.593-6.541 1.525-10 1-2.714-2.539-3.897-5.292-4.123-9.04l.003-2.383-.004-2.74.01-3v-3.164c0-3.457.009-6.915.016-10.372l.005-7.184c.003-6.308.013-12.616.024-18.924.01-6.435.015-12.87.02-19.304.01-12.63.028-25.26.049-37.889-.736.01-1.473.02-2.231.032-3.34.041-6.68.067-10.019.093l-3.512.05-3.379.02-3.11.032c-2.8-.231-4.413-.695-6.749-2.227-1.558-3.115-1.565-6.604-1-10 2.575-3.738 5.405-3.38 9.703-3.388Z"/><path fill="#001928" d="M0 187c3 4 3 4 4 7 2.676 2.185 2.676 2.185 5 2v2l4 2H0v-13Z"/><path fill="#001526" d="M0 0h13C7.286 4.571 7.286 4.571 3 6c-1.23 3.512-1.23 3.512-2 7H0V0Z"/><path fill="#00090F" d="M200 0v13c-2-3-2-3-2.875-5.563C195.785 4.535 194.903 4.144 192 3l-3-2c3.43-1.715 7.217-1.054 11-1Z"/><path fill="#00060B" d="M197 191h3v9h-9c1.58-2.155 3.106-4.106 5-6l1-3Z"/></svg>